<svg id="svg" xmlns="http://www.w3.org/2000/svg" xmlns:xlink="http://www.w3.org/1999/xlink" width="400" height="301.187648456057" viewBox="0, 0, 400,301.187648456057"><g id="svgg"><path id="path0" d="M79.284 16.235 C 78.933 16.803,79.121 17.744,79.703 18.325 C 80.479 19.101,80.760 18.953,80.760 17.767 C 80.760 16.879,81.448 16.152,82.288 16.152 C 83.466 16.152,83.680 16.752,83.224 18.765 C 82.675 21.185,82.733 21.248,84.006 19.623 C 84.762 18.657,85.150 17.268,84.869 16.535 C 84.266 14.963,80.204 14.745,79.284 16.235 M66.100 29.380 C 62.344 33.530,63.642 42.755,67.982 42.755 C 70.316 42.755,75.059 36.174,75.059 32.936 C 75.059 27.605,69.649 25.458,66.100 29.380 M73.159 32.682 C 73.159 36.451,67.834 42.382,66.570 40.020 C 63.835 34.909,67.231 27.298,71.281 29.465 C 72.326 30.025,73.159 31.452,73.159 32.682 M334.442 32.904 C 333.658 33.203,328.934 35.324,323.945 37.619 C 310.871 43.633,305.983 44.424,295.681 42.198 C 278.947 38.582,274.421 39.816,263.563 50.960 C 254.600 60.159,254.629 60.164,253.183 49.053 C 252.505 43.843,249.198 39.905,245.500 39.905 C 242.586 39.905,241.697 41.899,241.053 49.881 C 240.004 62.905,234.061 65.683,217.918 60.697 C 202.873 56.050,191.800 60.997,187.244 74.402 C 184.449 82.624,181.406 82.819,176.646 75.082 C 169.317 63.172,154.348 61.361,159.641 73.025 C 164.269 83.226,159.103 92.349,144.534 99.704 C 138.116 102.944,132.333 108.216,130.998 112.045 C 130.230 114.248,129.691 114.527,126.843 114.195 C 118.865 113.263,105.087 119.975,100.194 127.175 C 98.912 129.063,97.862 130.114,97.862 129.510 C 97.862 128.907,96.269 127.888,94.322 127.245 C 92.376 126.603,89.993 125.073,89.028 123.846 C 86.492 120.622,84.215 121.082,80.346 125.602 C 75.972 130.712,71.642 132.707,69.376 130.657 C 65.932 127.540,57.957 131.762,57.957 136.701 C 57.957 138.810,51.243 140.904,50.607 138.994 C 49.422 135.438,47.734 134.528,44.290 135.585 C 41.010 136.592,40.855 136.537,40.855 134.375 C 40.855 131.916,43.502 129.745,47.785 128.692 C 52.256 127.592,50.091 125.908,43.819 125.607 C 36.283 125.244,32.454 128.465,29.877 137.331 C 25.702 151.691,34.493 164.623,49.403 166.056 C 54.290 166.525,55.064 170.071,50.280 170.071 C 43.123 170.071,41.658 181.384,47.941 188.124 C 49.159 189.430,50.466 191.995,50.845 193.824 C 51.224 195.653,53.168 200.998,55.166 205.701 C 58.920 214.538,60.983 223.831,60.154 228.168 C 58.982 234.299,64.487 231.516,67.688 224.359 C 69.355 220.633,69.474 218.944,68.868 207.636 C 68.085 193.011,69.033 189.626,76.046 182.018 C 81.847 175.725,84.024 176.077,81.193 182.851 C 79.487 186.936,79.624 198.680,81.385 199.262 C 81.990 199.461,84.669 197.685,87.339 195.313 C 90.009 192.942,93.362 190.747,94.790 190.436 C 102.328 188.792,106.402 184.927,106.410 179.413 C 106.418 173.559,104.423 172.303,102.138 176.722 C 98.867 183.047,93.549 178.262,96.363 171.527 L 97.874 167.912 103.806 168.423 C 110.894 169.034,118.763 172.298,118.768 174.629 C 118.784 181.896,131.363 188.482,139.192 185.323 C 140.676 184.724,140.051 184.410,136.342 183.888 C 121.837 181.846,118.966 177.240,122.037 160.935 C 122.946 156.111,123.408 151.276,123.063 150.190 C 121.368 144.850,114.823 145.957,112.279 152.013 C 109.987 157.471,108.360 156.094,108.327 148.667 C 108.281 138.541,127.866 132.756,136.786 140.262 C 142.514 145.082,143.806 149.222,143.081 160.440 C 142.241 173.433,145.704 178.230,152.151 173.003 C 154.928 170.752,154.072 169.609,150.745 171.125 C 146.114 173.236,145.203 171.208,145.944 160.441 C 147.191 142.344,138.601 132.351,123.519 134.352 C 115.110 135.467,107.216 140.139,106.078 144.674 C 105.208 148.140,97.601 147.912,98.262 144.440 C 100.385 133.290,101.082 130.849,102.928 128.110 C 108.386 120.010,126.083 113.867,130.689 118.473 C 132.200 119.985,132.416 119.913,134.259 117.286 C 140.646 108.181,153.128 100.651,172.447 94.245 C 187.278 89.327,190.024 88.749,190.024 90.542 C 190.024 94.450,188.521 98.166,185.525 101.666 C 180.891 107.080,182.613 107.828,187.588 102.562 C 191.144 98.798,191.802 97.412,192.766 91.643 C 194.557 80.933,194.726 80.376,197.092 77.416 C 200.094 73.659,200.707 74.579,201.231 83.642 C 201.939 95.866,207.537 97.439,222.873 89.726 L 231.495 85.390 243.471 85.213 C 258.560 84.990,258.998 84.710,265.901 70.905 C 268.702 65.303,272.550 59.136,274.452 57.201 L 277.910 53.682 278.198 57.630 C 278.357 59.821,277.790 63.204,276.922 65.231 C 272.669 75.171,271.879 81.637,275.067 80.413 C 278.855 78.960,270.519 92.558,263.134 99.882 C 255.337 107.613,251.725 108.920,236.327 109.580 C 223.771 110.118,218.593 111.879,214.195 117.105 C 211.785 119.970,210.039 119.652,209.991 116.338 C 209.938 112.713,204.140 106.305,201.171 106.592 L 198.100 106.888 197.537 115.914 C 197.101 122.909,196.492 125.743,194.831 128.504 C 192.409 132.528,193.360 133.220,196.588 129.783 C 199.159 127.047,200.422 122.126,200.452 114.727 C 200.490 105.682,203.792 107.741,208.067 119.477 C 210.605 126.442,211.092 126.620,214.187 121.717 C 218.838 114.350,224.510 112.127,238.682 112.119 C 256.570 112.109,266.827 104.697,277.910 83.774 C 290.288 60.404,295.489 60.661,288.792 84.313 C 283.917 101.528,284.704 110.114,291.028 108.725 L 293.868 108.101 291.827 110.967 C 289.428 114.335,289.319 114.964,291.134 114.964 C 292.937 114.964,296.767 108.643,296.068 106.821 C 295.678 105.807,294.451 105.461,291.937 105.658 C 286.945 106.049,287.149 97.800,292.553 80.760 C 294.632 74.207,295.169 66.061,293.587 65.083 C 291.625 63.871,292.641 61.758,295.185 61.758 C 296.586 61.758,301.831 60.077,306.839 58.024 C 316.280 54.152,326.234 51.888,331.466 52.423 L 334.490 52.732 329.602 59.382 C 323.353 67.885,306.348 102.512,301.139 117.340 C 286.648 158.592,258.308 179.748,215.202 181.493 C 189.579 182.530,176.722 187.514,176.722 196.411 C 176.722 199.439,177.893 199.071,179.572 195.516 C 181.707 190.995,183.361 190.981,182.156 195.495 C 181.349 198.518,181.628 200.890,183.787 209.348 C 188.421 227.507,186.265 233.438,170.810 245.040 C 162.130 251.556,157.539 260.027,159.050 266.740 C 159.590 269.138,159.285 268.978,155.441 264.849 C 143.560 252.089,144.168 240.355,157.020 234.378 C 172.292 227.277,182.708 207.908,175.241 200.498 C 173.929 199.197,173.846 199.688,174.421 205.352 C 176.594 226.743,150.961 239.841,118.724 233.814 C 108.170 231.841,101.589 234.813,100.107 242.219 C 99.152 246.997,94.737 243.521,93.520 237.033 C 91.434 225.912,97.702 220.575,116.368 217.581 C 136.904 214.286,146.318 206.736,146.318 193.561 C 146.318 184.887,143.110 184.199,138.502 191.885 C 131.010 204.381,114.453 208.821,97.625 202.848 C 93.414 201.354,91.587 199.525,94.306 199.525 C 99.121 199.525,121.615 185.772,121.615 182.829 C 121.615 180.902,120.302 181.149,118.202 183.470 C 115.517 186.437,104.597 192.672,96.715 195.738 C 88.293 199.015,87.700 200.866,94.062 204.021 C 110.912 212.378,130.893 208.246,140.158 194.490 L 143.468 189.574 143.468 194.476 C 143.468 205.878,134.833 212.089,114.815 215.086 C 95.538 217.973,86.683 227.597,91.720 240.188 C 94.798 247.879,104.031 251.602,102.911 244.700 C 101.656 236.966,109.064 234.085,122.565 237.055 C 125.962 237.802,132.742 238.428,137.631 238.446 C 145.725 238.477,146.459 238.629,145.821 240.143 C 143.767 245.015,144.173 251.737,146.852 257.211 C 151.558 266.832,164.371 277.874,164.371 272.311 C 164.371 271.583,165.039 270.731,165.856 270.417 C 168.398 269.442,167.256 263.857,164.371 263.152 C 162.566 262.711,162.056 262.035,162.250 260.341 C 162.653 256.811,164.141 255.747,169.634 255.061 C 175.973 254.269,177.091 253.124,175.628 248.927 C 174.381 245.351,178.225 241.077,183.667 239.989 C 189.917 238.739,193.608 231.806,190.435 227.276 C 187.679 223.340,187.695 214.492,190.467 210.408 C 191.791 208.457,192.874 206.508,192.874 206.076 C 192.874 204.664,187.009 198.575,185.650 198.575 C 183.938 198.575,183.971 196.799,185.761 192.515 C 187.461 188.447,187.565 188.425,191.359 191.308 C 196.483 195.202,199.808 196.435,207.126 197.151 C 216.040 198.024,219.601 199.817,225.932 206.619 C 231.232 212.313,232.530 212.670,234.428 208.951 C 236.283 205.316,235.834 201.041,233.188 197.142 C 230.365 192.982,230.702 192.535,237.814 191.005 C 245.373 189.379,252.031 189.875,263.831 192.944 C 283.685 198.107,291.683 194.064,285.560 181.962 C 280.409 171.781,284.000 167.493,297.226 168.032 C 320.848 168.995,324.353 168.469,325.527 163.790 C 326.730 158.996,323.672 155.870,316.390 154.449 C 300.166 151.284,302.476 135.942,319.367 134.674 C 335.548 133.460,338.269 122.452,323.729 117.028 C 318.673 115.142,317.155 112.624,320.190 111.158 C 320.974 110.779,323.967 109.393,326.841 108.078 C 340.508 101.826,345.044 94.609,345.841 77.851 C 346.480 64.395,347.162 62.553,356.871 48.051 C 359.689 43.841,361.995 39.724,361.995 38.901 C 361.995 35.118,340.766 30.498,334.442 32.904 M354.059 37.114 C 356.573 38.192,358.765 39.209,358.929 39.373 C 359.093 39.537,356.201 44.320,352.502 50.002 C 344.477 62.330,342.993 66.790,342.993 78.588 C 342.993 93.441,332.261 107.363,320.811 107.363 C 318.350 107.363,315.439 111.119,315.439 114.295 C 315.439 116.162,318.260 118.392,321.615 119.177 C 327.364 120.522,331.436 125.091,330.066 128.659 C 329.314 130.619,327.340 131.192,318.489 132.020 C 301.571 133.604,296.400 153.707,312.245 156.292 C 319.441 157.466,322.544 159.036,322.853 161.656 C 323.353 165.902,314.552 168.007,305.463 165.814 C 294.397 163.144,285.913 164.815,281.398 170.555 C 278.704 173.980,278.780 174.941,282.272 181.491 C 288.162 192.542,282.382 195.462,264.787 190.326 C 244.620 184.439,220.799 188.925,229.359 196.999 C 232.046 199.533,232.779 200.952,232.779 203.619 C 232.779 208.615,231.441 208.644,226.924 203.743 C 221.447 197.801,215.833 195.137,207.593 194.569 C 201.027 194.117,197.522 192.830,192.885 189.166 L 190.521 187.299 193.360 186.150 C 194.994 185.490,204.069 184.717,214.727 184.332 C 258.411 182.751,289.107 160.307,303.103 119.715 C 310.233 99.036,326.081 67.750,335.042 56.664 C 341.363 48.844,341.111 48.476,330.166 49.556 C 319.051 50.652,314.155 52.102,296.731 59.462 C 279.196 66.868,280.400 66.858,280.983 59.593 C 282.062 46.142,273.318 50.195,264.780 67.102 C 261.846 72.911,262.676 72.543,246.862 75.070 C 239.900 76.182,228.219 78.184,220.903 79.518 C 202.603 82.856,203.893 82.974,203.301 77.910 C 202.175 68.274,195.442 70.681,191.643 82.079 L 190.388 85.844 177.617 89.790 C 170.593 91.960,163.349 94.405,161.520 95.224 C 159.691 96.043,156.516 97.437,154.465 98.320 L 150.735 99.927 156.017 95.101 C 164.518 87.330,166.212 81.412,162.446 72.628 C 160.165 67.306,160.255 67.124,164.454 68.553 C 169.371 70.226,171.191 71.736,174.840 77.172 C 179.852 84.638,184.877 85.621,187.845 79.716 C 188.476 78.461,190.024 75.045,191.286 72.125 C 195.462 62.455,204.420 59.642,218.508 63.574 C 235.362 68.279,242.407 64.584,243.645 50.388 C 244.333 42.507,245.025 41.554,248.315 43.960 C 249.382 44.740,250.274 47.366,250.848 51.422 C 252.594 63.749,254.420 63.985,265.033 53.257 C 274.966 43.217,280.587 41.051,289.792 43.716 C 302.548 47.410,311.574 46.485,325.094 40.096 C 335.629 35.119,334.920 35.315,342.677 35.229 C 347.576 35.175,350.769 35.704,354.059 37.114 M283.135 69.220 C 283.135 70.451,278.622 75.059,277.416 75.059 C 275.970 75.059,277.215 71.107,279.137 69.596 C 280.869 68.235,283.135 68.021,283.135 69.220 M260.333 75.957 C 260.333 80.541,256.043 82.174,242.603 82.704 L 229.454 83.222 221.773 87.275 C 212.149 92.354,204.979 92.719,204.453 88.157 C 204.218 86.118,204.616 85.470,206.353 85.068 C 216.422 82.736,223.068 81.499,237.055 79.353 C 250.277 77.325,258.423 75.841,260.095 75.157 C 260.226 75.103,260.333 75.463,260.333 75.957 M166.352 102.532 C 165.351 103.532,163.058 106.632,161.255 109.420 C 159.453 112.208,156.851 115.526,155.473 116.793 C 152.731 119.315,152.290 120.665,154.208 120.665 C 155.968 120.665,160.738 115.412,164.775 109.026 C 169.145 102.115,171.726 101.707,175.297 107.363 C 178.107 111.815,178.622 112.025,178.622 108.716 C 178.622 102.889,170.226 98.657,166.352 102.532 M143.943 104.121 C 138.329 108.827,135.587 110.582,136.031 109.185 C 136.442 107.892,144.941 101.626,146.188 101.697 C 146.521 101.716,145.511 102.806,143.943 104.121 M86.874 125.316 C 87.460 126.263,85.259 127.332,82.820 127.286 C 81.453 127.260,81.489 127.064,83.079 125.861 C 85.205 124.253,86.135 124.120,86.874 125.316 M39.484 130.378 C 32.385 140.512,44.903 146.472,59.992 140.142 C 63.315 138.748,67.316 137.109,68.884 136.500 C 70.451 135.891,72.234 134.922,72.846 134.348 C 73.458 133.773,76.912 132.354,80.522 131.193 C 93.442 127.038,97.925 129.677,96.284 140.469 L 95.468 145.843 88.586 145.560 C 84.801 145.405,80.973 145.687,80.079 146.187 C 78.864 146.867,77.768 146.519,75.734 144.807 C 71.011 140.833,67.481 142.263,67.429 148.171 C 67.385 153.099,64.398 155.057,59.085 153.638 C 54.021 152.287,52.699 153.459,52.823 159.193 C 52.911 163.307,52.835 163.420,49.972 163.411 C 34.429 163.362,25.565 143.251,35.750 131.146 C 38.702 127.638,41.858 126.988,39.484 130.378 M270.249 134.090 C 268.714 135.726,265.669 137.871,263.483 138.858 C 259.706 140.562,259.534 140.816,260.044 143.960 C 260.649 147.683,258.265 148.450,253.224 146.153 C 251.130 145.199,250.403 145.336,248.191 147.101 C 244.201 150.285,237.277 153.716,232.332 154.961 C 228.142 156.017,227.878 156.265,228.251 158.805 C 228.694 161.821,226.695 162.484,223.387 160.418 C 222.004 159.554,220.771 159.656,217.680 160.893 C 215.384 161.812,211.089 162.470,207.392 162.470 C 203.051 162.470,201.353 162.779,202.020 163.446 C 203.793 165.219,212.102 165.531,217.016 164.010 C 220.336 162.981,222.197 162.842,223.476 163.526 C 226.942 165.382,230.373 164.201,230.688 161.045 C 230.947 158.459,231.508 158.027,236.753 156.380 C 239.932 155.382,244.459 153.096,246.812 151.299 C 250.523 148.466,251.396 148.171,253.382 149.075 C 258.992 151.632,263.830 149.496,262.943 144.855 C 262.553 142.812,263.039 142.145,266.037 140.616 C 270.964 138.102,276.681 131.116,273.812 131.116 C 273.387 131.116,271.784 132.455,270.249 134.090 M67.458 132.992 C 67.458 134.135,61.787 137.163,61.042 136.418 C 60.745 136.121,61.279 135.021,62.228 133.973 C 64.009 132.004,67.458 131.358,67.458 132.992 M47.850 139.192 C 48.242 140.216,47.752 140.618,46.107 140.618 C 43.748 140.618,42.343 139.447,43.415 138.375 C 44.541 137.248,47.298 137.756,47.850 139.192 M173.479 144.355 C 168.510 147.631,163.394 156.559,167.173 155.359 C 168.192 155.036,170.340 155.451,171.945 156.281 C 182.677 161.830,195.640 152.163,187.100 144.978 C 183.481 141.932,177.565 141.662,173.479 144.355 M74.109 146.333 C 75.376 147.164,75.376 147.372,74.109 148.204 C 71.595 149.854,69.484 149.370,70.033 147.268 C 70.577 145.190,71.904 144.885,74.109 146.333 M186.858 150.520 C 185.886 153.054,184.446 152.182,184.533 149.111 C 184.606 146.542,184.779 146.367,186.024 147.612 C 186.799 148.387,187.174 149.696,186.858 150.520 M90.021 149.000 C 90.871 149.540,90.235 150.675,87.767 153.023 C 83.170 157.397,80.806 162.776,80.781 168.925 C 80.761 173.763,80.560 174.150,75.508 179.083 C 66.790 187.594,65.207 192.276,66.033 207.113 C 66.929 223.231,63.840 234.366,62.371 220.311 C 61.994 216.708,60.266 211.012,57.832 205.347 C 49.326 185.552,51.025 171.545,63.531 158.354 C 69.939 151.595,85.471 146.111,90.021 149.000 M106.413 154.574 C 109.228 160.416,113.048 164.767,114.280 163.535 C 114.794 163.021,114.679 161.812,113.994 160.532 C 111.768 156.373,116.401 147.596,119.735 149.656 C 120.982 150.427,120.858 154.136,119.347 161.172 C 117.688 168.902,116.300 170.413,113.061 168.018 C 107.606 163.986,96.872 164.606,94.554 169.088 C 90.494 176.940,96.875 186.830,102.423 181.283 C 103.310 180.396,103.563 180.405,103.563 181.326 C 103.563 183.786,98.966 187.173,95.629 187.173 C 92.047 187.173,85.880 181.506,86.814 179.072 C 87.076 178.389,86.707 177.605,85.993 177.331 C 79.949 175.012,84.439 157.207,92.228 152.606 C 100.237 147.875,103.397 148.313,106.413 154.574 M59.268 156.382 C 60.527 156.865,60.445 157.337,58.692 159.708 C 56.121 163.186,55.107 163.206,55.107 159.778 C 55.107 156.005,56.123 155.175,59.268 156.382 M51.020 174.198 C 50.751 174.900,50.209 178.000,49.816 181.086 C 49.102 186.698,49.102 186.698,47.872 183.848 C 46.307 180.223,46.223 175.535,47.696 174.062 C 49.242 172.516,51.628 172.614,51.020 174.198 M86.758 192.258 C 82.339 196.308,81.334 195.844,82.188 190.149 C 83.322 182.583,84.149 181.888,87.491 185.694 L 90.358 188.959 86.758 192.258 M188.955 204.438 C 189.754 205.718,189.784 206.748,189.062 208.098 C 187.669 210.701,186.563 210.445,185.890 207.363 C 185.576 205.926,185.034 203.747,184.686 202.520 C 183.932 199.864,186.943 201.216,188.955 204.438 M164.575 209.699 C 164.803 211.839,164.360 212.381,161.758 213.145 C 157.930 214.269,157.740 215.677,161.415 215.677 C 165.230 215.677,168.594 212.805,167.780 210.243 C 166.769 207.054,164.247 206.627,164.575 209.699 M153.381 222.803 C 152.647 226.716,152.697 226.702,148.518 224.120 C 144.552 221.668,143.318 222.459,146.246 225.577 C 150.984 230.620,155.819 229.400,155.819 223.162 C 155.819 218.571,154.220 218.336,153.381 222.803 M128.266 227.912 C 128.266 234.914,133.092 235.075,137.070 228.206 C 139.498 224.012,137.438 223.541,134.353 227.585 C 131.625 231.162,130.211 230.748,130.181 226.366 C 130.173 225.190,129.739 224.228,129.216 224.228 C 128.694 224.228,128.266 225.886,128.266 227.912 M187.572 234.764 C 185.201 237.384,184.909 236.398,186.806 232.169 C 188.283 228.877,188.490 228.730,188.838 230.720 C 189.057 231.971,188.506 233.732,187.572 234.764 M173.183 249.828 C 173.560 251.271,173.049 251.811,170.851 252.294 C 167.069 253.125,166.247 252.022,168.989 249.799 C 171.812 247.510,172.578 247.516,173.183 249.828 M356.726 250.313 C 349.630 257.410,359.060 271.943,367.270 266.563 C 372.629 263.052,372.858 256.720,367.808 251.670 C 363.438 247.300,360.143 246.897,356.726 250.313 M365.869 252.659 C 371.859 258.649,366.335 268.931,359.182 265.103 C 355.125 262.932,354.703 253.954,358.532 251.272 C 361.387 249.272,362.738 249.528,365.869 252.659 M164.371 267.933 C 164.371 268.979,163.943 269.834,163.420 269.834 C 162.898 269.834,162.470 269.655,162.470 269.436 C 162.470 269.218,162.211 268.363,161.894 267.536 C 161.515 266.550,161.842 266.033,162.844 266.033 C 163.737 266.033,164.371 266.822,164.371 267.933 M379.640 270.377 C 376.265 273.752,379.330 280.188,382.812 277.037 C 385.015 275.044,385.409 271.775,383.658 270.024 C 382.155 268.521,381.432 268.585,379.640 270.377 M382.898 273.043 C 382.898 276.333,380.450 278.127,379.728 275.366 C 379.182 273.279,380.454 270.784,382.064 270.784 C 382.523 270.784,382.898 271.800,382.898 273.043 " stroke="none" fill="#000000" fill-rule="evenodd"></path></g></svg>